0
SECTION
2
HEADER
9
$INSUNITS
70
4
9
$ACADVER
1
AC1014
9
$HANDSEED
5
FFFF
0
ENDSEC
0
SECTION
2
TABLES
0
TABLE
2
VPORT
5
8
100
AcDbSymbolTable
0
ENDTAB
0
TABLE
2
LTYPE
5
5
100
AcDbSymbolTable
0
LTYPE
5
14
100
AcDbSymbolTableRecord
100
AcDbLinetypeTableRecord
2
BYBLOCK
70
0
0
LTYPE
5
15
100
AcDbSymbolTableRecord
100
AcDbLinetypeTableRecord
2
BYLAYER
70
0
0
ENDTAB
0
TABLE
2
LAYER
5
2
100
AcDbSymbolTable
70
2
0
LAYER
5
50
100
AcDbSymbolTableRecord
100
AcDbLayerTableRecord
2
0
70
0
6
CONTINUOUS
0
ENDTAB
0
TABLE
2
STYLE
5
3
100
AcDbSymbolTable
70
1
0
STYLE
5
11
100
AcDbSymbolTableRecord
100
AcDbTextStyleTableRecord
2
STANDARD
70
0
0
ENDTAB
0
TABLE
2
VIEW
5
6
100
AcDbSymbolTable
70
0
0
ENDTAB
0
TABLE
2
UCS
5
7
100
AcDbSymbolTable
70
0
0
ENDTAB
0
TABLE
2
APPID
5
9
100
AcDbSymbolTable
70
2
0
APPID
5
12
100
AcDbSymbolTableRecord
100
AcDbRegAppTableRecord
2
ACAD
70
0
0
ENDTAB
0
TABLE
2
DIMSTYLE
5
A
100
AcDbSymbolTable
70
1
0
ENDTAB
0
TABLE
2
BLOCK_RECORD
5
1
100
AcDbSymbolTable
70
1
0
BLOCK_RECORD
5
1F
100
AcDbSymbolTableRecord
100
AcDbBlockTableRecord
2
*MODEL_SPACE
0
BLOCK_RECORD
5
1B
100
AcDbSymbolTableRecord
100
AcDbBlockTableRecord
2
*PAPER_SPACE
0
ENDTAB
0
ENDSEC
0
SECTION
2
BLOCKS
0
BLOCK
5
20
100
AcDbEntity
100
AcDbBlockBegin
2
*MODEL_SPACE
0
ENDBLK
5
21
100
AcDbEntity
100
AcDbBlockEnd
0
BLOCK
5
1C
100
AcDbEntity
100
AcDbBlockBegin
2
*PAPER_SPACE
0
ENDBLK
5
1D
100
AcDbEntity
100
AcDbBlockEnd
0
ENDSEC
0
SECTION
2
ENTITIES
0
CIRCLE
5
100
100
AcDbEntity
8
0
100
AcDbCircle
10
214.9999999999751
20
120.12325579297155
30
0
40
2.75
210
0
220
-0
230
1
0
CIRCLE
5
101
100
AcDbEntity
8
0
100
AcDbCircle
10
194.9999999999751
20
120.12325579297475
30
0
40
2.75
210
0
220
-0
230
1
0
CIRCLE
5
102
100
AcDbEntity
8
0
100
AcDbCircle
10
214.99999999999287
20
230.12325579297155
30
0
40
2.75
210
0
220
-0
230
1
0
CIRCLE
5
103
100
AcDbEntity
8
0
100
AcDbCircle
10
194.99999999999287
20
230.12325579297476
30
0
40
2.75
210
0
220
-0
230
1
0
CIRCLE
5
104
100
AcDbEntity
8
0
100
AcDbCircle
10
215.00000000002674
20
440.12325579297158
30
0
40
2.75
210
0
220
-0
230
1
0
CIRCLE
5
105
100
AcDbEntity
8
0
100
AcDbCircle
10
195.00000000002674
20
440.12325579297482
30
0
40
2.75
210
0
220
-0
230
1
0
CIRCLE
5
106
100
AcDbEntity
8
0
100
AcDbCircle
10
132.87499999995714
20
10.123255792984835
30
0
40
2.75
210
0
220
-0
230
1
0
CIRCLE
5
107
100
AcDbEntity
8
0
100
AcDbCircle
10
132.87500000004289
20
540.12325579298488
30
0
40
2.75
210
0
220
-0
230
1
0
CIRCLE
5
108
100
AcDbEntity
8
0
100
AcDbCircle
10
194.99999999995734
20
10.123255792974746
30
0
40
2.75
210
0
220
-0
230
1
0
CIRCLE
5
109
100
AcDbEntity
8
0
100
AcDbCircle
10
214.99999999995734
20
10.123255792971548
30
0
40
2.75
210
0
220
-0
230
1
0
CIRCLE
5
110
100
AcDbEntity
8
0
100
AcDbCircle
10
215.00000000001063
20
340.12325579297158
30
0
40
2.75
210
0
220
-0
230
1
0
CIRCLE
5
111
100
AcDbEntity
8
0
100
AcDbCircle
10
195.00000000001063
20
340.12325579297482
30
0
40
2.75
210
0
220
-0
230
1
0
CIRCLE
5
112
100
AcDbEntity
8
0
100
AcDbCircle
10
215.00000000004289
20
540.12325579297158
30
0
40
2.75
210
0
220
-0
230
1
0
CIRCLE
5
113
100
AcDbEntity
8
0
100
AcDbCircle
10
195.00000000004289
20
540.12325579297476
30
0
40
2.75
210
0
220
-0
230
1
0
CIRCLE
5
114
100
AcDbEntity
8
0
100
AcDbCircle
10
-215.00000000002495
20
120.12325579304097
30
0
40
2.75
210
0
220
-0
230
1
0
CIRCLE
5
115
100
AcDbEntity
8
0
100
AcDbCircle
10
-195.00000000002495
20
120.12325579303777
30
0
40
2.75
210
0
220
-0
230
1
0
CIRCLE
5
116
100
AcDbEntity
8
0
100
AcDbCircle
10
-2.4940050025179517e-11
20
120.12325579300629
30
0
40
2.75
210
0
220
-0
230
1
0
CIRCLE
5
117
100
AcDbEntity
8
0
100
AcDbCircle
10
-215.00000000000716
20
230.12325579304098
30
0
40
2.75
210
0
220
-0
230
1
0
CIRCLE
5
118
100
AcDbEntity
8
0
100
AcDbCircle
10
-195.00000000000716
20
230.12325579303777
30
0
40
2.75
210
0
220
-0
230
1
0
CIRCLE
5
119
100
AcDbEntity
8
0
100
AcDbCircle
10
-7.1764816311770119e-12
20
230.12325579300631
30
0
40
2.75
210
0
220
-0
230
1
0
CIRCLE
5
120
100
AcDbEntity
8
0
100
AcDbCircle
10
-214.99999999997326
20
440.12325579304098
30
0
40
2.75
210
0
220
-0
230
1
0
CIRCLE
5
121
100
AcDbEntity
8
0
100
AcDbCircle
10
-194.99999999997326
20
440.12325579303774
30
0
40
2.75
210
0
220
-0
230
1
0
CIRCLE
5
122
100
AcDbEntity
8
0
100
AcDbCircle
10
-132.87500000004252
20
10.123255793027752
30
0
40
2.75
210
0
220
-0
230
1
0
CIRCLE
5
123
100
AcDbEntity
8
0
100
AcDbCircle
10
-4.2703618419182021e-11
20
10.123255793006294
30
0
40
2.75
210
0
220
-0
230
1
0
CIRCLE
5
124
100
AcDbEntity
8
0
100
AcDbCircle
10
-132.87499999995714
20
540.12325579302774
30
0
40
2.75
210
0
220
-0
230
1
0
CIRCLE
5
125
100
AcDbEntity
8
0
100
AcDbCircle
10
-195.00000000004269
20
10.123255793037771
30
0
40
2.75
210
0
220
-0
230
1
0
CIRCLE
5
126
100
AcDbEntity
8
0
100
AcDbCircle
10
-215.00000000004269
20
10.123255793040968
30
0
40
2.75
210
0
220
-0
230
1
0
CIRCLE
5
127
100
AcDbEntity
8
0
100
AcDbCircle
10
-214.99999999998943
20
340.12325579304104
30
0
40
2.75
210
0
220
-0
230
1
0
CIRCLE
5
128
100
AcDbEntity
8
0
100
AcDbCircle
10
-194.99999999998943
20
340.12325579303774
30
0
40
2.75
210
0
220
-0
230
1
0
CIRCLE
5
129
100
AcDbEntity
8
0
100
AcDbCircle
10
1.0587086762825493e-11
20
340.12325579300625
30
0
40
2.75
210
0
220
-0
230
1
0
CIRCLE
5
130
100
AcDbEntity
8
0
100
AcDbCircle
10
-214.99999999995708
20
540.12325579304093
30
0
40
2.75
210
0
220
-0
230
1
0
CIRCLE
5
131
100
AcDbEntity
8
0
100
AcDbCircle
10
-194.99999999995708
20
540.12325579303774
30
0
40
2.75
210
0
220
-0
230
1
0
LWPOLYLINE
5
132
100
AcDbEntity
8
0
100
AcDbPolyline
90
16
70
1
43
0.0
10
74.50000000004448
20
550.1232557929942
42
0.41421356237308982
10
73.500000000044338
20
549.12325579299431
10
73.500000000035755
20
495.12325579299431
42
-0.41421356237310025
10
72.500000000035584
20
494.12325579299443
10
-72.499999999964587
20
494.12325579301796
42
-0.4142135623730846
10
-73.499999999964402
20
495.12325579301807
10
-73.499999999955605
20
549.12325579301807
42
0.41421356237310281
10
-74.499999999955463
20
550.1232557930183
10
-223.99999999995549
20
550.12325579304252
42
0.4142135623730846
10
-224.99999999995563
20
549.12325579304263
10
-225.00000000004417
20
1.1232557930425457
42
0.41421356237304646
10
-224.00000000004434
20
0.12325579304237777
10
223.99999999995569
20
0.12325579297011183
42
0.41421356237308804
10
224.99999999995583
20
1.1232557929699798
10
225.00000000004434
20
549.12325579296987
42
0.41421356237306384
10
224.00000000004454
20
550.1232557929701
0
ENDSEC
0
SECTION
2
OBJECTS
0
DICTIONARY
5
C
100
AcDbDictionary
3
ACAD_GROUP
350
D
3
ACAD_MLINESTYLE
350
17
0
DICTIONARY
5
D
100
AcDbDictionary
0
DICTIONARY
5
1A
330
C
100
AcDbDictionary
0
DICTIONARY
5
17
100
AcDbDictionary
0
ENDSEC
0
EOF
