0
SECTION
2
HEADER
9
$INSUNITS
70
4
9
$ACADVER
1
AC1014
9
$HANDSEED
5
FFFF
0
ENDSEC
0
SECTION
2
TABLES
0
TABLE
2
VPORT
5
8
100
AcDbSymbolTable
0
ENDTAB
0
TABLE
2
LTYPE
5
5
100
AcDbSymbolTable
0
LTYPE
5
14
100
AcDbSymbolTableRecord
100
AcDbLinetypeTableRecord
2
BYBLOCK
70
0
0
LTYPE
5
15
100
AcDbSymbolTableRecord
100
AcDbLinetypeTableRecord
2
BYLAYER
70
0
0
ENDTAB
0
TABLE
2
LAYER
5
2
100
AcDbSymbolTable
70
2
0
LAYER
5
50
100
AcDbSymbolTableRecord
100
AcDbLayerTableRecord
2
0
70
0
6
CONTINUOUS
0
ENDTAB
0
TABLE
2
STYLE
5
3
100
AcDbSymbolTable
70
1
0
STYLE
5
11
100
AcDbSymbolTableRecord
100
AcDbTextStyleTableRecord
2
STANDARD
70
0
0
ENDTAB
0
TABLE
2
VIEW
5
6
100
AcDbSymbolTable
70
0
0
ENDTAB
0
TABLE
2
UCS
5
7
100
AcDbSymbolTable
70
0
0
ENDTAB
0
TABLE
2
APPID
5
9
100
AcDbSymbolTable
70
2
0
APPID
5
12
100
AcDbSymbolTableRecord
100
AcDbRegAppTableRecord
2
ACAD
70
0
0
ENDTAB
0
TABLE
2
DIMSTYLE
5
A
100
AcDbSymbolTable
70
1
0
ENDTAB
0
TABLE
2
BLOCK_RECORD
5
1
100
AcDbSymbolTable
70
1
0
BLOCK_RECORD
5
1F
100
AcDbSymbolTableRecord
100
AcDbBlockTableRecord
2
*MODEL_SPACE
0
BLOCK_RECORD
5
1B
100
AcDbSymbolTableRecord
100
AcDbBlockTableRecord
2
*PAPER_SPACE
0
ENDTAB
0
ENDSEC
0
SECTION
2
BLOCKS
0
BLOCK
5
20
100
AcDbEntity
100
AcDbBlockBegin
2
*MODEL_SPACE
0
ENDBLK
5
21
100
AcDbEntity
100
AcDbBlockEnd
0
BLOCK
5
1C
100
AcDbEntity
100
AcDbBlockBegin
2
*PAPER_SPACE
0
ENDBLK
5
1D
100
AcDbEntity
100
AcDbBlockEnd
0
ENDSEC
0
SECTION
2
ENTITIES
0
ARC
5
100
100
AcDbEntity
8
0
100
AcDbCircle
10
7.9999999999587246
20
118.15839670562787
30
-5.6961961501484874e-46
40
1.0000000000000364
210
-1.7431527984210205e-32
220
-1.2979386332737049e-32
230
1
100
AcDbArc
50
0
51
45.000000000000647
0
LINE
5
101
100
AcDbEntity
8
0
100
AcDbLine
10
8.7071067811453062
20
118.86550348681446
30
0
11
-10.707106781227653
21
138.2797170491873
31
0
0
ARC
5
102
100
AcDbEntity
8
0
100
AcDbCircle
10
-10.00000000004114
20
138.98682383037391
30
0
40
1.0000000000000009
210
1.7105694144590037e-48
220
-4.1066412954769228e-48
230
1
100
AcDbArc
50
180
51
225.00000000000395
0
LINE
5
103
100
AcDbEntity
8
0
100
AcDbLine
10
-11.000000000041155
20
138.98682383037391
30
0
11
-11.00000000004113
21
223.99999999999991
31
0
0
ARC
5
104
100
AcDbEntity
8
0
100
AcDbCircle
10
-12.000000000041169
20
223.99999999999994
30
1.3293794844063718e-63
40
1.0000000000000009
210
1.7105694144590052e-48
220
-6.077163357286266e-62
230
1
100
AcDbArc
50
0
51
90
0
LINE
5
105
100
AcDbEntity
8
0
100
AcDbLine
10
-12.000000000041169
20
224.99999999999994
30
0
11
-132.00000000004124
21
224.99999999999994
31
0
0
LINE
5
106
100
AcDbEntity
8
0
100
AcDbLine
10
10.499999999958831
20
-167.00000000000011
30
0
11
10.499999999958822
21
-93.327185711930625
31
0
0
LINE
5
107
100
AcDbEntity
8
0
100
AcDbLine
10
10.169888050307492
20
-92.584723591684778
30
0
11
-10.669888050389996
21
-73.781990629123797
31
0
0
ARC
5
108
100
AcDbEntity
8
0
100
AcDbCircle
10
-10.000000000041283
20
-73.03952850887795
30
0
40
1.0000000000000009
210
1.7105694144590037e-48
220
2.8519205968724205e-48
230
1
100
AcDbArc
50
180
51
227.94157493649075
0
LINE
5
109
100
AcDbEntity
8
0
100
AcDbLine
10
-11.000000000041261
20
-73.03952850887795
30
0
11
-11.000000000041236
21
12.973647660747893
31
0
0
ARC
5
110
100
AcDbEntity
8
0
100
AcDbCircle
10
-10.000000000041211
20
12.973647660747893
30
0
40
1.0000000000000011
210
-9.1033249487116077e-34
220
-9.1033249487116077e-34
230
1
100
AcDbArc
50
135
51
180
0
LINE
5
111
100
AcDbEntity
8
0
100
AcDbLine
10
-10.707106781227758
20
13.68075444193444
30
0
11
8.7071067811452689
21
33.094968004307823
31
0
0
ARC
5
112
100
AcDbEntity
8
0
100
AcDbCircle
10
7.9999999999587068
20
33.802074785494362
30
1.0179248623454504e-61
40
0.99999999999998312
210
-1.6370751405113524e-33
220
-1.637075140511402e-33
230
1
100
AcDbArc
50
-44.999999999998778
51
0
0
LINE
5
113
100
AcDbEntity
8
0
100
AcDbLine
10
8.9999999999587033
20
33.802074785494369
30
0
11
8.9999999999587601
21
118.15839670562788
31
1.74315279842105e-32
0
CIRCLE
5
114
100
AcDbEntity
8
0
100
AcDbCircle
10
-166.61522368919094
20
-166.61522368914987
30
0
40
17.5
210
3.1278983578678951e-48
220
3.8305707120217995e-64
230
1
0
CIRCLE
5
115
100
AcDbEntity
8
0
100
AcDbCircle
10
-124.00000135604699
20
214.99999999999994
30
0
40
2.75
210
-3.0189874454735995e-48
220
2.4651903288156619e-32
230
1
0
CIRCLE
5
116
100
AcDbEntity
8
0
100
AcDbCircle
10
-41.333334689380266
20
215
30
0
40
2.75
210
-3.0189874454735995e-48
220
2.4651903288156619e-32
230
1
0
CIRCLE
5
117
100
AcDbEntity
8
0
100
AcDbCircle
10
-215.00000000004121
20
-1.4210854715202004e-13
30
0
40
2.75
210
-3.0189874454735995e-48
220
2.4651903288156619e-32
230
1
0
CIRCLE
5
118
100
AcDbEntity
8
0
100
AcDbCircle
10
-97.500000000041211
20
-215.00000000000011
30
0
40
2.75
210
-3.0189874454735995e-48
220
2.4651903288156619e-32
230
1
0
CIRCLE
5
119
100
AcDbEntity
8
0
100
AcDbCircle
10
-215.00000000004135
20
-124.00000000000013
30
0
40
2.75
210
-3.0189874454735995e-48
220
2.4651903288156619e-32
230
1
0
CIRCLE
5
120
100
AcDbEntity
8
0
100
AcDbCircle
10
-215.00000000004127
20
123.99999999999984
30
0
40
2.75
210
-3.0189874454735995e-48
220
2.4651903288156619e-32
230
1
0
LWPOLYLINE
5
121
100
AcDbEntity
8
0
100
AcDbPolyline
90
8
70
1
43
0.0
10
-49.250000000040863
20
-119.00000000000018
10
-49.250000000040828
20
-172.00000000000011
42
-0.41421356237309503
10
-50.250000000040842
20
-173.00000000000011
10
-65.250000000040771
20
-173.00000000000006
42
-0.41421356237309503
10
-66.250000000040771
20
-172.00000000000003
10
-66.250000000040799
20
-119.00000000000003
42
-0.41421356237309503
10
-65.250000000040814
20
-118.00000000000003
10
-50.250000000040842
20
-118.00000000000017
42
-0.41421356237310542
0
LWPOLYLINE
5
122
100
AcDbEntity
8
0
100
AcDbPolyline
90
8
70
1
43
0.0
10
-144.76562415051779
20
183.51507575951175
10
-107.28896474766749
20
146.03841635665509
42
-0.41421356237302148
10
-107.28896474766753
20
144.62420279428218
10
-117.89556646546473
20
134.01760107648266
42
-0.41421356237310974
10
-119.30978002783786
20
134.01760107648246
10
-156.78643943072564
20
171.49426047936458
42
-0.41421356237394857
10
-156.78643943072365
20
172.90847404173974
10
-146.17983771288894
20
183.51507575951376
42
-0.41421356237225626
0
CIRCLE
5
123
100
AcDbEntity
8
0
100
AcDbCircle
10
-4.1211478674085811e-11
20
-134.99341191518744
30
0
40
2.7500000000000213
210
2.4881009664858065e-48
220
3.0470448845627713e-64
230
1
0
ARC
5
124
100
AcDbEntity
8
0
100
AcDbCircle
10
-132.00000000004124
20
223.99999999999994
30
-1.7661756007113226e-62
40
0.99999999999997868
210
1.7105694144590323e-48
220
-1.7661756007113601e-62
230
1
100
AcDbArc
50
90
51
180
0
LINE
5
125
100
AcDbEntity
8
0
100
AcDbLine
10
-133.00000000004121
20
223.99999999999991
30
1.7105694144589782e-48
11
-133.00000000004127
21
207.99999999999989
31
0
0
ARC
5
126
100
AcDbEntity
8
0
100
AcDbCircle
10
-134.00000000004127
20
207.99999999999989
30
0
40
1.0000000000000142
210
1.7105694144590052e-48
220
3.1422650372048295e-64
230
1
100
AcDbArc
50
-90
51
0
0
LINE
5
127
100
AcDbEntity
8
0
100
AcDbLine
10
-134.00000000004127
20
206.99999999999989
30
3.142265037204874e-64
11
-183.00000000004127
21
207.00000000000031
31
0
0
ARC
5
128
100
AcDbEntity
8
0
100
AcDbCircle
10
-183.00000000004127
20
206.00000000000028
30
-9.3056563908446028e-63
40
1.0000000000000142
210
1.7105694144590274e-48
220
-9.3056563908444711e-63
230
1
100
AcDbArc
50
90
51
180
0
LINE
5
129
100
AcDbEntity
8
0
100
AcDbLine
10
-184.00000000004127
20
206.00000000000028
30
1.7105694144590423e-48
11
-184.00000000004127
21
192.48528137423847
31
0
0
LINE
5
130
100
AcDbEntity
8
0
100
AcDbLine
10
-184.00000000004127
20
192.48528137423847
30
0
11
-165.38485788992654
21
173.87013926412365
31
0
0
ARC
5
131
100
AcDbEntity
8
0
100
AcDbCircle
10
-166.09196467111303
20
173.16303248293713
30
0
40
0.999999999999998
210
-0
220
0
230
1
100
AcDbArc
50
-44.999999999998835
51
45.000000000001151
0
LINE
5
132
100
AcDbEntity
8
0
100
AcDbLine
10
-165.38485788992648
20
172.4559257017506
30
0
11
-172.45592570179198
21
165.3848578898851
31
0
0
ARC
5
133
100
AcDbEntity
8
0
100
AcDbCircle
10
-173.16303248297851
20
166.09196467107159
30
0
40
0.999999999999998
210
-8.7157639921048123e-33
220
8.7157639921056854e-33
230
1
100
AcDbArc
50
224.99999999999767
51
315.00000000000119
0
LINE
5
134
100
AcDbEntity
8
0
100
AcDbLine
10
-173.87013926416506
20
165.3848578898851
30
-2.2642405841048341e-48
11
-185.19238815546643
21
176.70710678118638
31
0
0
ARC
5
135
100
AcDbEntity
8
0
100
AcDbCircle
10
-185.8994949366529
20
175.99999999999994
30
-3.6144878624234674e-61
40
0.99999999999987232
210
8.5528470722929173e-49
220
-8.5528470722984581e-49
230
1
100
AcDbArc
50
44.999999999998849
51
90.000000000003254
0
LINE
5
136
100
AcDbEntity
8
0
100
AcDbLine
10
-185.89949493665296
20
176.99999999999983
30
-1.8991135491519597e-63
11
-206.00000000004121
21
176.99999999999983
31
0
0
ARC
5
137
100
AcDbEntity
8
0
100
AcDbCircle
10
-206.00000000004121
20
175.9999999999998
30
-9.3056563908446028e-63
40
1.0000000000000142
210
1.7105694144590274e-48
220
-9.3056563908444711e-63
230
1
100
AcDbArc
50
90
51
180
0
LINE
5
138
100
AcDbEntity
8
0
100
AcDbLine
10
-207.00000000004124
20
175.9999999999998
30
1.7105694144590423e-48
11
-207.00000000004115
21
133.99999999999983
31
0
0
ARC
5
139
100
AcDbEntity
8
0
100
AcDbCircle
10
-208.00000000004127
20
133.99999999999983
30
0
40
0.99999999999999645
210
1.7105694144590055e-48
220
3.1422650372048848e-64
230
1
100
AcDbArc
50
-90
51
0
0
LINE
5
140
100
AcDbEntity
8
0
100
AcDbLine
10
-208.00000000004127
20
132.99999999999986
30
3.142265037204874e-64
11
-224.00000000004127
21
132.99999999999983
31
0
0
ARC
5
141
100
AcDbEntity
8
0
100
AcDbCircle
10
-224.0000000000413
20
131.99999999999983
30
4.4629168405071054e-62
40
1.0000000000000142
210
1.7105694144590025e-48
220
-1.614246516779133e-62
230
1
100
AcDbArc
50
89.99999999999838
51
180
0
LINE
5
142
100
AcDbEntity
8
0
100
AcDbLine
10
-225.00000000004127
20
131.99999999999983
30
1.7105694144590414e-48
11
-225.00000000004124
21
-132.00000000000017
31
0
0
ARC
5
143
100
AcDbEntity
8
0
100
AcDbCircle
10
-224.00000000004127
20
-132.00000000000014
30
2.5732988591009055e-62
40
0.99999999999997868
210
-2.5732988591010704e-62
220
3.0994229374463642e-62
230
1
100
AcDbArc
50
180
51
270
0
LINE
5
144
100
AcDbEntity
8
0
100
AcDbLine
10
-224.00000000004127
20
-133.00000000000014
30
8.026117372856125e-63
11
-208.00000000004118
21
-133.00000000000014
31
0
0
ARC
5
145
100
AcDbEntity
8
0
100
AcDbCircle
10
-208.00000000004118
20
-134.00000000000014
30
0
40
1.0000000000000142
210
0
220
-0
230
1
100
AcDbArc
50
0
51
90
0
LINE
5
146
100
AcDbEntity
8
0
100
AcDbLine
10
-207.00000000004115
20
-134.00000000000014
30
0
11
-207.0000000000411
21
-183.00000000000011
31
0
0
ARC
5
147
100
AcDbEntity
8
0
100
AcDbCircle
10
-206.00000000004115
20
-183.00000000000011
30
1.7281933297282834e-61
40
0.99999999999994316
210
-1.7281933297283815e-61
220
-1.146216421712322e-61
230
1
100
AcDbArc
50
180
51
270
0
LINE
5
148
100
AcDbEntity
8
0
100
AcDbLine
10
-206.00000000004115
20
-184.00000000000011
30
5.7946309598618126e-62
11
-185.00000000004121
21
-184.00000000000011
31
6.0771633572862712e-63
0
ARC
5
149
100
AcDbEntity
8
0
100
AcDbCircle
10
-185.00000000004121
20
-185.00000000000014
30
0
40
1.0000000000000142
210
-2.0158607771388418e-46
220
2.4651903288156624e-32
230
1
100
AcDbArc
50
0
51
90
0
LINE
5
150
100
AcDbEntity
8
0
100
AcDbLine
10
-184.00000000004121
20
-185.00000000000014
30
2.0158607771388706e-46
11
-184.00000000004121
21
-206.00000000000011
31
0
0
ARC
5
151
100
AcDbEntity
8
0
100
AcDbCircle
10
-183.00000000004118
20
-206.00000000000017
30
1.1508628107860876e-61
40
1.0000000000000142
210
-1.1508628107861329e-61
220
-1.737445598658751e-61
230
1
100
AcDbArc
50
180
51
270
0
LINE
5
152
100
AcDbEntity
8
0
100
AcDbLine
10
-183.00000000004118
20
-207.00000000000017
30
3.8408747460659248e-62
11
-134.00000000004121
21
-207.00000000000011
31
0
0
ARC
5
153
100
AcDbEntity
8
0
100
AcDbCircle
10
-134.00000000004121
20
-208.00000000000011
30
0
40
0.99999999999999645
210
0
220
0
230
1
100
AcDbArc
50
0
51
90
0
LINE
5
154
100
AcDbEntity
8
0
100
AcDbLine
10
-133.00000000004121
20
-208.00000000000011
30
0
11
-133.00000000004118
21
-224.00000000000011
31
0
0
ARC
5
155
100
AcDbEntity
8
0
100
AcDbCircle
10
-132.00000000004115
20
-224.00000000000017
30
7.868619306511424e-46
40
1.0000000000000142
210
8.8949609551860648e-47
220
2.4651903288156438e-32
230
1
100
AcDbArc
50
180
51
270
0
LINE
5
156
100
AcDbEntity
8
0
100
AcDbLine
10
-132.00000000004115
20
-225.00000000000014
30
2.4651903288157139e-32
11
-63.000000000041254
21
-225.00000000000011
31
0
0
ARC
5
157
100
AcDbEntity
8
0
100
AcDbCircle
10
-63.000000000041283
20
-224.00000000000006
30
0
40
1.0000000000000497
210
0
220
0
230
1
100
AcDbArc
50
270.00000000000159
51
360
0
LINE
5
158
100
AcDbEntity
8
0
100
AcDbLine
10
-62.000000000041233
20
-224.00000000000009
30
0
11
-62.000000000041204
21
-208.00000000000009
31
0
0
ARC
5
159
100
AcDbEntity
8
0
100
AcDbCircle
10
-61.000000000041226
20
-208.00000000000011
30
0
40
1.0000000000000142
210
-1.3684555315672042e-48
220
-2.5138120297638629e-64
230
1
100
AcDbArc
50
90
51
180
0
LINE
5
160
100
AcDbEntity
8
0
100
AcDbLine
10
-61.000000000041226
20
-207.00000000000011
30
2.5138120297638987e-64
11
-32.500000000317613
21
-207.00000000000014
31
0
0
ARC
5
161
100
AcDbEntity
8
0
100
AcDbCircle
10
-32.500000000317684
20
-206.00000000000009
30
0
40
1.0000000000000497
210
0
220
0
230
1
100
AcDbArc
50
270.00000000000409
51
360
0
LINE
5
162
100
AcDbEntity
8
0
100
AcDbLine
10
-31.500000000317598
20
-206.00000000000443
30
0
11
-31.500000000156344
21
-167.99999999999588
31
0
0
ARC
5
163
100
AcDbEntity
8
0
100
AcDbCircle
10
-30.500000000156362
20
-168.00000000000014
30
0
40
1.0000000000000142
210
-1.3684555315672042e-48
220
-2.5138120297638636e-64
230
1
100
AcDbArc
50
90
51
180
0
LINE
5
164
100
AcDbEntity
8
0
100
AcDbLine
10
-30.500000000156362
20
-167.00000000000014
30
2.5138120297638994e-64
11
10.499999999958831
21
-167.00000000000011
31
0
0
ARC
5
165
100
AcDbEntity
8
0
100
AcDbCircle
10
9.4999999999588098
20
-93.327185711930625
30
0
40
1.000000000000012
210
0
220
0
230
1
100
AcDbArc
50
0
51
47.941574936492465
0
CIRCLE
5
166
100
AcDbEntity
8
0
100
AcDbCircle
10
-4.1247005810873816e-11
20
75.98023574556116
30
0
40
2.7499999999999858
210
-0
220
0
230
1
0
ENDSEC
0
SECTION
2
OBJECTS
0
DICTIONARY
5
C
100
AcDbDictionary
3
ACAD_GROUP
350
D
3
ACAD_MLINESTYLE
350
17
0
DICTIONARY
5
D
100
AcDbDictionary
0
DICTIONARY
5
1A
330
C
100
AcDbDictionary
0
DICTIONARY
5
17
100
AcDbDictionary
0
ENDSEC
0
EOF
