0
SECTION
2
HEADER
9
$INSUNITS
70
4
9
$ACADVER
1
AC1014
9
$HANDSEED
5
FFFF
0
ENDSEC
0
SECTION
2
TABLES
0
TABLE
2
VPORT
5
8
100
AcDbSymbolTable
0
ENDTAB
0
TABLE
2
LTYPE
5
5
100
AcDbSymbolTable
0
LTYPE
5
14
100
AcDbSymbolTableRecord
100
AcDbLinetypeTableRecord
2
BYBLOCK
70
0
0
LTYPE
5
15
100
AcDbSymbolTableRecord
100
AcDbLinetypeTableRecord
2
BYLAYER
70
0
0
ENDTAB
0
TABLE
2
LAYER
5
2
100
AcDbSymbolTable
70
2
0
LAYER
5
50
100
AcDbSymbolTableRecord
100
AcDbLayerTableRecord
2
0
70
0
6
CONTINUOUS
0
ENDTAB
0
TABLE
2
STYLE
5
3
100
AcDbSymbolTable
70
1
0
STYLE
5
11
100
AcDbSymbolTableRecord
100
AcDbTextStyleTableRecord
2
STANDARD
70
0
0
ENDTAB
0
TABLE
2
VIEW
5
6
100
AcDbSymbolTable
70
0
0
ENDTAB
0
TABLE
2
UCS
5
7
100
AcDbSymbolTable
70
0
0
ENDTAB
0
TABLE
2
APPID
5
9
100
AcDbSymbolTable
70
2
0
APPID
5
12
100
AcDbSymbolTableRecord
100
AcDbRegAppTableRecord
2
ACAD
70
0
0
ENDTAB
0
TABLE
2
DIMSTYLE
5
A
100
AcDbSymbolTable
70
1
0
ENDTAB
0
TABLE
2
BLOCK_RECORD
5
1
100
AcDbSymbolTable
70
1
0
BLOCK_RECORD
5
1F
100
AcDbSymbolTableRecord
100
AcDbBlockTableRecord
2
*MODEL_SPACE
0
BLOCK_RECORD
5
1B
100
AcDbSymbolTableRecord
100
AcDbBlockTableRecord
2
*PAPER_SPACE
0
ENDTAB
0
ENDSEC
0
SECTION
2
BLOCKS
0
BLOCK
5
20
100
AcDbEntity
100
AcDbBlockBegin
2
*MODEL_SPACE
0
ENDBLK
5
21
100
AcDbEntity
100
AcDbBlockEnd
0
BLOCK
5
1C
100
AcDbEntity
100
AcDbBlockBegin
2
*PAPER_SPACE
0
ENDBLK
5
1D
100
AcDbEntity
100
AcDbBlockEnd
0
ENDSEC
0
SECTION
2
ENTITIES
0
LWPOLYLINE
5
100
100
AcDbEntity
8
0
100
AcDbPolyline
90
53
70
1
43
0.0
10
11.49999999995886
20
-206.00000000000023
42
0.41421356237310542
10
12.49999999995886
20
-207.00000000000028
10
60.999999999958732
20
-207.00000000000011
42
-0.41421356237309503
10
61.999999999958732
20
-208.00000000000009
10
61.999999999958746
20
-224.00000000000006
42
0.41421356237310542
10
62.99999999995876
20
-225.00000000000006
10
131.9999999999587
20
-225.00000000000006
42
0.41421356237310542
10
132.99999999995867
20
-224.00000000000006
10
132.99999999995867
20
-208.00000000000006
42
-0.4142135623730846
10
133.9999999999587
20
-207.00000000000006
10
182.99999999995873
20
-207.00000000000006
42
0.41421356237307422
10
183.99999999995873
20
-206.00000000000009
10
183.9999999999587
20
-185.00000000000006
42
-0.41421356237309503
10
184.99999999995873
20
-184.00000000000006
10
205.99999999995867
20
-184.00000000000006
42
0.41421356237306384
10
206.9999999999587
20
-183.00000000000009
10
206.99999999995873
20
-134.00000000000009
42
-0.41421356237309503
10
207.99999999995873
20
-133.00000000000009
10
223.9999999999587
20
-133.00000000000009
42
0.41421356237310542
10
224.99999999995873
20
-132.00000000000011
10
224.99999999995873
20
131.99999999999989
42
0.41421356237310542
10
223.9999999999587
20
132.99999999999986
10
207.99999999995873
20
132.99999999999989
42
-0.41421356237309503
10
206.9999999999587
20
133.99999999999991
10
206.9999999999587
20
176.99999999999989
42
0.41421356237307422
10
205.9999999999587
20
177.99999999999989
10
186.89949493657048
20
177.99999999999989
42
0.19891236737970533
10
186.19238815538392
20
177.70710678118644
10
173.87013926408247
20
165.38485788988513
42
-0.41421356237310247
10
172.45592570170936
20
165.38485788988515
10
165.38485788984389
20
172.45592570175066
42
-0.41421356237309503
10
165.38485788984389
20
173.87013926412376
10
183.9999999999587
20
192.48528137423861
10
183.99999999995867
20
205.99999999999989
42
0.41421356237307422
10
182.99999999995873
20
206.99999999999989
10
133.9999999999587
20
206.99999999999989
42
-0.41421356237309503
10
132.9999999999587
20
207.99999999999989
10
132.9999999999587
20
223.99999999999991
42
0.41421356237310025
10
131.99999999995873
20
224.99999999999994
10
-9.0000000000413216
20
224.99999999999994
42
0.4142135623731103
10
-10.000000000041318
20
223.99999999999991
10
-10.000000000041414
20
139.40103739274718
42
0.19891236737965645
10
-9.7071067812278695
20
138.69393061156063
10
9.7071067811452867
20
119.27971704918754
42
-0.19891236737967069
10
9.9999999999587743
20
118.57261026800096
10
9.9999999999587388
20
33.387861223121327
42
-0.19891236737966689
10
9.7071067811452867
20
32.680754441934745
10
-9.7071067812277416
20
13.26654087956136
42
0.19891236737965604
10
-10.000000000041197
20
12.559434098374815
10
-10.000000000041272
20
-72.594910607641509
42
0.212290130974474
10
-9.6698880503899005
20
-73.337372727887399
10
11.169888050307557
20
-92.140105690448323
42
-0.21229013097447402
10
11.499999999958845
20
-92.882567810694212
0
CIRCLE
5
101
100
AcDbEntity
8
0
100
AcDbCircle
10
166.61522368910849
20
-166.61522368914984
30
0
40
17.5
210
3.1115076389305709e-61
220
6.1606692236229028e-90
230
1
0
CIRCLE
5
102
100
AcDbEntity
8
0
100
AcDbCircle
10
-4.1247005810873816e-11
20
-30.032940424065018
30
0
40
2.7500000000000213
210
3.1115076389305709e-61
220
6.1606692236229037e-90
230
1
0
CIRCLE
5
103
100
AcDbEntity
8
0
100
AcDbCircle
10
-4.1247005810873816e-11
20
174.99999999999994
30
0
40
2.7500000000000213
210
3.1115076389305709e-61
220
6.1606692236229037e-90
230
1
0
LWPOLYLINE
5
104
100
AcDbEntity
8
0
100
AcDbPolyline
90
8
70
1
43
0.0
10
107.28896474758494
20
146.03841635665526
10
144.76562415043526
20
183.51507575951175
42
-0.41421356237227097
10
146.17983771280632
20
183.51507575951376
10
156.78643943064108
20
172.90847404173979
42
-0.4142135623739559
10
156.78643943064301
20
171.49426047936461
10
119.30978002775527
20
134.01760107648258
42
-0.41421356237310608
10
117.89556646538215
20
134.01760107648269
10
107.28896474758493
20
144.62420279428224
42
-0.41421356237303619
0
CIRCLE
5
105
100
AcDbEntity
8
0
100
AcDbCircle
10
214.99999999995873
20
123.99999999999991
30
0
40
2.75
210
-0
220
0
230
1
0
CIRCLE
5
106
100
AcDbEntity
8
0
100
AcDbCircle
10
214.99999999995885
20
-124.00000000000007
30
0
40
2.75
210
-0
220
0
230
1
0
CIRCLE
5
107
100
AcDbEntity
8
0
100
AcDbCircle
10
97.499999999958717
20
-215.00000000000003
30
0
40
2.75
210
-0
220
0
230
1
0
CIRCLE
5
108
100
AcDbEntity
8
0
100
AcDbCircle
10
214.99999999995873
20
-7.1054273576010019e-14
30
0
40
2.75
210
-0
220
0
230
1
0
CIRCLE
5
109
100
AcDbEntity
8
0
100
AcDbCircle
10
123.99999864395306
20
215
30
0
40
2.75
210
-0
220
0
230
1
0
CIRCLE
5
110
100
AcDbEntity
8
0
100
AcDbCircle
10
41.333331977286392
20
215
30
0
40
2.75
210
-0
220
0
230
1
0
ENDSEC
0
SECTION
2
OBJECTS
0
DICTIONARY
5
C
100
AcDbDictionary
3
ACAD_GROUP
350
D
3
ACAD_MLINESTYLE
350
17
0
DICTIONARY
5
D
100
AcDbDictionary
0
DICTIONARY
5
1A
330
C
100
AcDbDictionary
0
DICTIONARY
5
17
100
AcDbDictionary
0
ENDSEC
0
EOF
