0
SECTION
2
HEADER
9
$INSUNITS
70
4
9
$ACADVER
1
AC1014
9
$HANDSEED
5
FFFF
0
ENDSEC
0
SECTION
2
TABLES
0
TABLE
2
VPORT
5
8
100
AcDbSymbolTable
0
ENDTAB
0
TABLE
2
LTYPE
5
5
100
AcDbSymbolTable
0
LTYPE
5
14
100
AcDbSymbolTableRecord
100
AcDbLinetypeTableRecord
2
BYBLOCK
70
0
0
LTYPE
5
15
100
AcDbSymbolTableRecord
100
AcDbLinetypeTableRecord
2
BYLAYER
70
0
0
ENDTAB
0
TABLE
2
LAYER
5
2
100
AcDbSymbolTable
70
2
0
LAYER
5
50
100
AcDbSymbolTableRecord
100
AcDbLayerTableRecord
2
0
70
0
6
CONTINUOUS
0
ENDTAB
0
TABLE
2
STYLE
5
3
100
AcDbSymbolTable
70
1
0
STYLE
5
11
100
AcDbSymbolTableRecord
100
AcDbTextStyleTableRecord
2
STANDARD
70
0
0
ENDTAB
0
TABLE
2
VIEW
5
6
100
AcDbSymbolTable
70
0
0
ENDTAB
0
TABLE
2
UCS
5
7
100
AcDbSymbolTable
70
0
0
ENDTAB
0
TABLE
2
APPID
5
9
100
AcDbSymbolTable
70
2
0
APPID
5
12
100
AcDbSymbolTableRecord
100
AcDbRegAppTableRecord
2
ACAD
70
0
0
ENDTAB
0
TABLE
2
DIMSTYLE
5
A
100
AcDbSymbolTable
70
1
0
ENDTAB
0
TABLE
2
BLOCK_RECORD
5
1
100
AcDbSymbolTable
70
1
0
BLOCK_RECORD
5
1F
100
AcDbSymbolTableRecord
100
AcDbBlockTableRecord
2
*MODEL_SPACE
0
BLOCK_RECORD
5
1B
100
AcDbSymbolTableRecord
100
AcDbBlockTableRecord
2
*PAPER_SPACE
0
ENDTAB
0
ENDSEC
0
SECTION
2
BLOCKS
0
BLOCK
5
20
100
AcDbEntity
100
AcDbBlockBegin
2
*MODEL_SPACE
0
ENDBLK
5
21
100
AcDbEntity
100
AcDbBlockEnd
0
BLOCK
5
1C
100
AcDbEntity
100
AcDbBlockBegin
2
*PAPER_SPACE
0
ENDBLK
5
1D
100
AcDbEntity
100
AcDbBlockEnd
0
ENDSEC
0
SECTION
2
ENTITIES
0
LWPOLYLINE
5
100
100
AcDbEntity
8
0
100
AcDbPolyline
90
4
70
1
43
0.0
10
-97.813229907761013
20
198.99137418746972
10
-92.813229907760928
20
198.99137418746966
42
-0.99999999999999989
10
-92.813229907761013
20
195.59137418746971
10
-97.81322990776107
20
195.59137418746968
42
-0.99999999999999989
0
LWPOLYLINE
5
101
100
AcDbEntity
8
0
100
AcDbPolyline
90
4
70
1
43
0.0
10
-2.3374434701341684
20
198.99137418746977
10
2.6625565298658671
20
198.99137418746977
42
-0.99999999999999989
10
2.6625565298658671
20
195.59137418746974
10
-2.3374434701340974
20
195.59137418746974
42
-0.99999999999999989
0
LWPOLYLINE
5
102
100
AcDbEntity
8
0
100
AcDbPolyline
90
4
70
1
43
0.0
10
98.138342967492605
20
195.59137418746968
10
93.138342967492804
20
195.59137418746974
42
-0.99999999999999989
10
93.138342967492662
20
198.99137418746972
10
98.138342967492889
20
198.99137418746977
42
-0.99999999999999989
0
LWPOLYLINE
5
103
100
AcDbEntity
8
0
100
AcDbPolyline
90
4
70
1
43
0.0
10
47.662556529865761
20
-213.3000000000001
10
52.662556529865725
20
-213.3000000000001
42
-0.99999999999999989
10
52.662556529865761
20
-216.70000000000005
10
47.662556529865796
20
-216.70000000000005
42
-0.99999999999999989
0
LWPOLYLINE
5
104
100
AcDbEntity
8
0
100
AcDbPolyline
90
4
70
1
43
0.0
10
-52.337443470134218
20
-213.30000000000007
10
-47.337443468632799
20
-213.30000000000001
42
-0.99999994784593715
10
-47.337443294311825
20
-216.70000000000002
10
-52.337443292810455
20
-216.69999999999993
42
-1.0000000521540655
0
CIRCLE
5
105
100
AcDbEntity
8
0
100
AcDbCircle
10
27.662556529865903
20
129.99999999999989
30
0
40
1.7000000000000002
210
0
220
-0
230
1
0
CIRCLE
5
106
100
AcDbEntity
8
0
100
AcDbCircle
10
-152.33744347013416
20
-130.00000000000003
30
0
40
1.7000000000000002
210
0
220
-0
230
1
0
CIRCLE
5
107
100
AcDbEntity
8
0
100
AcDbCircle
10
27.662556529865903
20
-130.00000000000006
30
0
40
1.7000000000000002
210
0
220
-0
230
1
0
CIRCLE
5
108
100
AcDbEntity
8
0
100
AcDbCircle
10
-152.33744347013413
20
129.99999999999997
30
0
40
1.7000000000000002
210
0
220
-0
230
1
0
CIRCLE
5
109
100
AcDbEntity
8
0
100
AcDbCircle
10
80.160106766113614
20
-121.9873842994493
30
0
40
1.7049999999999998
210
-1.0212607233204684e-48
220
4.9303806576313249e-32
230
1
0
CIRCLE
5
110
100
AcDbEntity
8
0
100
AcDbCircle
10
130.16010676611359
20
-170.61238429944922
30
0
40
1.7049999999999998
210
-1.0212607233204684e-48
220
4.9303806576313249e-32
230
1
0
CIRCLE
5
111
100
AcDbEntity
8
0
100
AcDbCircle
10
80.160106766113614
20
-170.61238429944927
30
0
40
1.7049999999999998
210
-1.0212607233204684e-48
220
4.9303806576313249e-32
230
1
0
CIRCLE
5
112
100
AcDbEntity
8
0
100
AcDbCircle
10
130.16010676611361
20
-121.98738429944925
30
0
40
1.7049999999999998
210
-1.0212607233204684e-48
220
4.9303806576313249e-32
230
1
0
CIRCLE
5
113
100
AcDbEntity
8
0
100
AcDbCircle
10
96.150532281211582
20
144.23951187920321
30
0
40
1.3
210
0
220
-0
230
1
0
CIRCLE
5
114
100
AcDbEntity
8
0
100
AcDbCircle
10
156.14653228121153
20
144.23951187920321
30
0
40
1.3
210
0
220
-0
230
1
0
CIRCLE
5
115
100
AcDbEntity
8
0
100
AcDbCircle
10
114.15788486791573
20
-44.253677885807754
30
0
40
1.3
210
0
220
-0
230
1
0
CIRCLE
5
116
100
AcDbEntity
8
0
100
AcDbCircle
10
54.161884867915724
20
-44.253677885807754
30
0
40
1.3
210
0
220
-0
230
1
0
CIRCLE
5
117
100
AcDbEntity
8
0
100
AcDbCircle
10
96.162328661252474
20
-44.25367813291583
30
0
40
1.3
210
0
220
-0
230
1
0
CIRCLE
5
118
100
AcDbEntity
8
0
100
AcDbCircle
10
156.15832866125248
20
-44.25367813291583
30
0
40
1.3
210
0
220
-0
230
1
0
CIRCLE
5
119
100
AcDbEntity
8
0
100
AcDbCircle
10
114.14608848787474
20
144.23951212631121
30
0
40
1.3
210
0
220
-0
230
1
0
CIRCLE
5
120
100
AcDbEntity
8
0
100
AcDbCircle
10
54.150088487874726
20
144.23951212631121
30
0
40
1.3
210
0
220
-0
230
1
0
CIRCLE
5
121
100
AcDbEntity
8
0
100
AcDbCircle
10
-123.02033668894758
20
210.99999999999983
30
0
40
1.6999999999999904
210
-1.021260723320469e-48
220
4.9303806576313238e-32
230
1
0
CIRCLE
5
122
100
AcDbEntity
8
0
100
AcDbCircle
10
123.34544974867931
20
210.99999999999983
30
0
40
1.7000000000000171
210
-4.4525614029483477e-48
220
-4.9303806576313238e-32
230
1
0
CIRCLE
5
123
100
AcDbEntity
8
0
100
AcDbCircle
10
-171.51610365428184
20
210.99999999999983
30
0
40
1.6999999999999993
210
0
220
-0
230
1
0
CIRCLE
5
124
100
AcDbEntity
8
0
100
AcDbCircle
10
171.8412167140136
20
210.99999999999983
30
0
40
1.7000000000000171
210
-4.4525614029483477e-48
220
-4.9303806576313238e-32
230
1
0
LWPOLYLINE
5
125
100
AcDbEntity
8
0
100
AcDbPolyline
90
10
70
1
43
0.0
10
112.63834296749263
20
224.99999999999997
10
112.63834296749263
20
207.87867965644028
42
-0.41421356237310542
10
111.63834296749258
20
206.87867965644028
10
-111.31322990776101
20
206.8786796564404
42
-0.41421356237309503
10
-112.31322990776101
20
207.87867965644037
10
-112.31322990776101
20
224.99999999999997
10
-182.33744347013413
20
224.99999999999997
10
-182.33744347013416
20
-225.00000000000003
10
182.66255652986584
20
-225.00000000000006
10
182.66255652986587
20
224.99999999999994
0
LWPOLYLINE
5
126
100
AcDbEntity
8
0
100
AcDbPolyline
90
4
70
1
43
0.0
10
-175.75644347013417
20
-178.30000000000001
10
-171.75644347003643
20
-178.30000000000007
42
-1.0000004805481246
10
-171.75644510409512
20
-181.69999999999925
10
-175.75644347013417
20
-181.70000000000005
42
-0.99999999999999989
0
LWPOLYLINE
5
127
100
AcDbEntity
8
0
100
AcDbPolyline
90
4
70
1
43
0.0
10
-175.75644351959448
20
-198.30000016860336
10
-171.75644352677818
20
-198.29999983139675
42
-1.0000000166600047
10
-171.75644347013417
20
-201.69999983139672
10
-175.75644346455005
20
-201.70000016860331
42
-0.99999998709521587
0
LWPOLYLINE
5
128
100
AcDbEntity
8
0
100
AcDbPolyline
90
4
70
1
43
0.0
10
-175.75644347013426
20
181.69999999999999
10
-171.75644510399724
20
181.69999999999925
42
-1.0000004805481246
10
-171.75644347013417
20
178.29999999999998
10
-175.75644347013392
20
178.29999999999995
42
-0.99999999999999989
0
LWPOLYLINE
5
129
100
AcDbEntity
8
0
100
AcDbPolyline
90
4
70
1
43
0.0
10
-175.75644347013412
20
201.70000016860325
10
-171.7564434645501
20
201.69999983139661
42
-1.0000000129047841
10
-171.75644351959446
20
198.29999983139663
10
-175.75644352079806
20
198.30000016860336
42
-0.99999998509883881
0
LWPOLYLINE
5
130
100
AcDbEntity
8
0
100
AcDbPolyline
90
4
70
1
43
0.0
10
176.08155652986599
20
-181.70000000000005
10
172.08155816372903
20
-181.69999999999931
42
-1.0000004805481246
10
172.08155652986579
20
-178.30000000000013
10
176.08155652986565
20
-178.30000000000001
42
-0.99999999999999989
0
LWPOLYLINE
5
131
100
AcDbEntity
8
0
100
AcDbPolyline
90
4
70
1
43
0.0
10
176.08155652986585
20
-201.7000001686034
10
172.08155651623036
20
-201.69999983139675
42
-1.0000000105367122
10
172.08155657932619
20
-198.2999998313968
10
176.08155657374212
20
-198.30000016860336
42
-0.99999998709521587
0
LWPOLYLINE
5
132
100
AcDbEntity
8
0
100
AcDbPolyline
90
4
70
1
43
0.0
10
176.08155652986594
20
178.29999999999995
10
172.08155652976808
20
178.29999999999998
42
-1.0000004805481246
10
172.08155816382688
20
181.69999999999916
10
176.08155652986585
20
181.69999999999999
42
-0.99999999999999989
0
LWPOLYLINE
5
133
100
AcDbEntity
8
0
100
AcDbPolyline
90
4
70
1
43
0.0
10
176.08155657932616
20
198.30000016860328
10
172.08155658052988
20
198.29999983139663
42
-1.0000000149011612
10
172.08155652986594
20
201.69999983139661
10
176.08155653106962
20
201.70000016860331
42
-0.99999998509883881
0
ENDSEC
0
SECTION
2
OBJECTS
0
DICTIONARY
5
C
100
AcDbDictionary
3
ACAD_GROUP
350
D
3
ACAD_MLINESTYLE
350
17
0
DICTIONARY
5
D
100
AcDbDictionary
0
DICTIONARY
5
1A
330
C
100
AcDbDictionary
0
DICTIONARY
5
17
100
AcDbDictionary
0
ENDSEC
0
EOF
