0
SECTION
2
HEADER
9
$INSUNITS
70
4
9
$ACADVER
1
AC1014
9
$HANDSEED
5
FFFF
0
ENDSEC
0
SECTION
2
TABLES
0
TABLE
2
VPORT
5
8
100
AcDbSymbolTable
0
ENDTAB
0
TABLE
2
LTYPE
5
5
100
AcDbSymbolTable
0
LTYPE
5
14
100
AcDbSymbolTableRecord
100
AcDbLinetypeTableRecord
2
BYBLOCK
70
0
0
LTYPE
5
15
100
AcDbSymbolTableRecord
100
AcDbLinetypeTableRecord
2
BYLAYER
70
0
0
ENDTAB
0
TABLE
2
LAYER
5
2
100
AcDbSymbolTable
70
2
0
LAYER
5
50
100
AcDbSymbolTableRecord
100
AcDbLayerTableRecord
2
0
70
0
6
CONTINUOUS
0
ENDTAB
0
TABLE
2
STYLE
5
3
100
AcDbSymbolTable
70
1
0
STYLE
5
11
100
AcDbSymbolTableRecord
100
AcDbTextStyleTableRecord
2
STANDARD
70
0
0
ENDTAB
0
TABLE
2
VIEW
5
6
100
AcDbSymbolTable
70
0
0
ENDTAB
0
TABLE
2
UCS
5
7
100
AcDbSymbolTable
70
0
0
ENDTAB
0
TABLE
2
APPID
5
9
100
AcDbSymbolTable
70
2
0
APPID
5
12
100
AcDbSymbolTableRecord
100
AcDbRegAppTableRecord
2
ACAD
70
0
0
ENDTAB
0
TABLE
2
DIMSTYLE
5
A
100
AcDbSymbolTable
70
1
0
ENDTAB
0
TABLE
2
BLOCK_RECORD
5
1
100
AcDbSymbolTable
70
1
0
BLOCK_RECORD
5
1F
100
AcDbSymbolTableRecord
100
AcDbBlockTableRecord
2
*MODEL_SPACE
0
BLOCK_RECORD
5
1B
100
AcDbSymbolTableRecord
100
AcDbBlockTableRecord
2
*PAPER_SPACE
0
ENDTAB
0
ENDSEC
0
SECTION
2
BLOCKS
0
BLOCK
5
20
100
AcDbEntity
100
AcDbBlockBegin
2
*MODEL_SPACE
0
ENDBLK
5
21
100
AcDbEntity
100
AcDbBlockEnd
0
BLOCK
5
1C
100
AcDbEntity
100
AcDbBlockBegin
2
*PAPER_SPACE
0
ENDBLK
5
1D
100
AcDbEntity
100
AcDbBlockEnd
0
ENDSEC
0
SECTION
2
ENTITIES
0
CIRCLE
5
100
100
AcDbEntity
8
0
100
AcDbCircle
10
205.00046922831024
20
518.12325579303899
30
0
40
1.7000000000000002
210
1.1555721348242071e-32
220
1.8675778550945714e-45
230
1
0
CIRCLE
5
101
100
AcDbEntity
8
0
100
AcDbCircle
10
205.00046922838877
20
32.123255793039007
30
0
40
1.7000000000000002
210
1.1555721348242071e-32
220
1.8675778550945714e-45
230
1
0
LWPOLYLINE
5
102
100
AcDbEntity
8
0
100
AcDbPolyline
90
40
70
1
43
0.0
10
-218.99953077169496
20
550.12325579297044
42
0.41421356237308815
10
-224.99953077169397
20
544.12325579296953
10
-224.9995307716855
20
491.62325579296947
42
0.4142135623730534
10
-223.99953077168533
20
490.62325579296959
10
-211.79661236683117
20
490.62325579297158
42
-0.26794919243112331
10
-207.46648534790853
20
488.12325579297232
10
-197.93382366638139
20
471.61220142920831
42
-0.52874960430577789
10
-198.65153077160497
20
470.12326175343821
10
-211.65153077168202
20
470.12325579297163
42
0.4142135623730846
10
-212.65153077168185
20
469.12325579297146
10
-212.65153077167568
20
431.12325579297146
42
0.4142135623730534
10
-211.65153077167557
20
430.12325579297163
10
-198.80623131005478
20
430.12325579297374
42
-0.57735026918964527
10
-197.94020590627011
20
428.62325579297385
10
-207.46648534789628
20
412.12325579297237
42
-0.26794919243112497
10
-211.79661236681807
20
409.62325579297158
10
-223.99953077167223
20
409.62325579296964
42
0.41421356237306384
10
-224.99953077167214
20
408.62325579296953
10
-224.99953077162888
20
141.62325579296947
42
0.4142135623730846
10
-223.99953077162877
20
140.62325579296964
10
-211.79661236677461
20
140.62325579297158
42
-0.26794919243112514
10
-207.46648534785197
20
138.12325579297229
10
-197.94020590622043
20
121.62325579297391
42
-0.57735026918961951
10
-198.8062313100047
20
120.12325579297375
10
-211.65153077162543
20
120.12325579297168
42
0.41421356237310025
10
-212.65153077162529
20
119.12325579297145
10
-212.65153077161912
20
81.12325579297142
42
0.4142135623730846
10
-211.65153077161901
20
80.123255792971577
10
-198.65153164588031
20
80.123249963639594
42
-0.52874988712953264
10
-197.93382366631786
20
78.63431015673946
10
-207.46648534783969
20
62.123255792972358
42
-0.26794919243112358
10
-211.79661236676151
20
59.623255792971619
10
-223.9995307716157
20
59.623255792969672
42
0.414213562373069
10
-224.9995307716155
20
58.623255792969488
10
-224.999530771607
20
6.123255792969502
42
0.41421356237309076
10
-218.99953077160603
20
0.12325579297050027
10
219.00046922839394
20
0.12325579304127032
42
0.41421356237308965
10
225.00046922839294
20
6.1232557930421674
10
225.00046922830603
20
544.12325579304229
42
0.41421356237309337
10
219.00046922830515
20
550.12325579304127
0
CIRCLE
5
103
100
AcDbEntity
8
0
100
AcDbCircle
10
-205.65153077162066
20
90.623255792972586
30
0
40
1.7000000000000002
210
1.1555721348242071e-32
220
1.8675778550945714e-45
230
1
0
CIRCLE
5
104
100
AcDbEntity
8
0
100
AcDbCircle
10
-205.65153077167724
20
440.6232557929726
30
0
40
1.7000000000000002
210
1.1555721348242071e-32
220
1.8675778550945714e-45
230
1
0
CIRCLE
5
105
100
AcDbEntity
8
0
100
AcDbCircle
10
-205.65153077168031
20
459.6232557929726
30
0
40
1.7000000000000002
210
1.1555721348242071e-32
220
1.8675778550945714e-45
230
1
0
CIRCLE
5
106
100
AcDbEntity
8
0
100
AcDbCircle
10
-205.65153077162375
20
109.62325579297264
30
0
40
1.7000000000000002
210
1.1555721348242071e-32
220
1.8675778550945714e-45
230
1
0
CIRCLE
5
107
100
AcDbEntity
8
0
100
AcDbCircle
10
173.00046922831029
20
518.12325579303388
30
0
40
5
210
1.1555721348242071e-32
220
1.8675778550945714e-45
230
1
0
CIRCLE
5
108
100
AcDbEntity
8
0
100
AcDbCircle
10
173.00046922838879
20
32.12325579303382
30
0
40
5
210
1.1555721348242071e-32
220
1.8675778550945714e-45
230
1
0
ENDSEC
0
SECTION
2
OBJECTS
0
DICTIONARY
5
C
100
AcDbDictionary
3
ACAD_GROUP
350
D
3
ACAD_MLINESTYLE
350
17
0
DICTIONARY
5
D
100
AcDbDictionary
0
DICTIONARY
5
1A
330
C
100
AcDbDictionary
0
DICTIONARY
5
17
100
AcDbDictionary
0
ENDSEC
0
EOF
