0
SECTION
2
HEADER
9
$INSUNITS
70
4
9
$ACADVER
1
AC1014
9
$HANDSEED
5
FFFF
0
ENDSEC
0
SECTION
2
TABLES
0
TABLE
2
VPORT
5
8
100
AcDbSymbolTable
0
ENDTAB
0
TABLE
2
LTYPE
5
5
100
AcDbSymbolTable
0
LTYPE
5
14
100
AcDbSymbolTableRecord
100
AcDbLinetypeTableRecord
2
BYBLOCK
70
0
0
LTYPE
5
15
100
AcDbSymbolTableRecord
100
AcDbLinetypeTableRecord
2
BYLAYER
70
0
0
ENDTAB
0
TABLE
2
LAYER
5
2
100
AcDbSymbolTable
70
2
0
LAYER
5
50
100
AcDbSymbolTableRecord
100
AcDbLayerTableRecord
2
0
70
0
6
CONTINUOUS
0
ENDTAB
0
TABLE
2
STYLE
5
3
100
AcDbSymbolTable
70
1
0
STYLE
5
11
100
AcDbSymbolTableRecord
100
AcDbTextStyleTableRecord
2
STANDARD
70
0
0
ENDTAB
0
TABLE
2
VIEW
5
6
100
AcDbSymbolTable
70
0
0
ENDTAB
0
TABLE
2
UCS
5
7
100
AcDbSymbolTable
70
0
0
ENDTAB
0
TABLE
2
APPID
5
9
100
AcDbSymbolTable
70
2
0
APPID
5
12
100
AcDbSymbolTableRecord
100
AcDbRegAppTableRecord
2
ACAD
70
0
0
ENDTAB
0
TABLE
2
DIMSTYLE
5
A
100
AcDbSymbolTable
70
1
0
ENDTAB
0
TABLE
2
BLOCK_RECORD
5
1
100
AcDbSymbolTable
70
1
0
BLOCK_RECORD
5
1F
100
AcDbSymbolTableRecord
100
AcDbBlockTableRecord
2
*MODEL_SPACE
0
BLOCK_RECORD
5
1B
100
AcDbSymbolTableRecord
100
AcDbBlockTableRecord
2
*PAPER_SPACE
0
ENDTAB
0
ENDSEC
0
SECTION
2
BLOCKS
0
BLOCK
5
20
100
AcDbEntity
100
AcDbBlockBegin
2
*MODEL_SPACE
0
ENDBLK
5
21
100
AcDbEntity
100
AcDbBlockEnd
0
BLOCK
5
1C
100
AcDbEntity
100
AcDbBlockBegin
2
*PAPER_SPACE
0
ENDBLK
5
1D
100
AcDbEntity
100
AcDbBlockEnd
0
ENDSEC
0
SECTION
2
ENTITIES
0
CIRCLE
5
100
100
AcDbEntity
8
0
100
AcDbCircle
10
-207.37822173504483
20
-207.29378641141693
30
0
40
20.000000000000007
210
0
220
-0
230
1
0
CIRCLE
5
101
100
AcDbEntity
8
0
100
AcDbCircle
10
-218.99999999995555
20
-176.58578641141696
30
0
40
1.7000000000000015
210
3.4321913579709782e-61
220
2.8025969286496341e-45
230
1
0
CIRCLE
5
102
100
AcDbEntity
8
0
100
AcDbCircle
10
-195.62703394758287
20
-176.58578641141696
30
0
40
1.6999999999999993
210
-6.2230152778611417e-61
220
7.620995741077724e-77
230
1
0
LWPOLYLINE
5
103
100
AcDbEntity
8
0
100
AcDbPolyline
90
4
70
1
43
0.0
10
-212.69999999995551
20
-156.58578722742547
10
-212.69999999995551
20
-146.58578559528968
42
-1.0000004799701949
10
-209.29999999995633
20
-146.58578722742544
10
-209.29999999995556
20
-156.58578722742547
42
-0.99999999999999989
0
LWPOLYLINE
5
104
100
AcDbEntity
8
0
100
AcDbPolyline
90
4
70
1
43
0.0
10
-212.69999999995551
20
-17.292894214302983
10
-212.69999999995548
20
-7.2928921971200182
42
-1.0000005932928606
10
-209.2999999999567
20
-7.2928942143029829
10
-209.29999999995547
20
-17.292894214302983
42
-0.99999999999999989
0
LWPOLYLINE
5
105
100
AcDbEntity
8
0
100
AcDbPolyline
90
4
70
1
43
0.0
10
-212.69999999995551
20
6.7071057856970029
10
-212.69999999995548
20
16.707107802886121
42
-0.99999999999999989
10
-209.2999999999555
20
16.70710780288605
10
-209.29999999995661
20
6.7071078030511542
42
-1.0000005933396412
0
LWPOLYLINE
5
106
100
AcDbEntity
8
0
100
AcDbPolyline
90
4
70
1
43
0.0
10
-212.69999999995548
20
145.99999918399152
10
-212.69999999995548
20
156.00000081600857
42
-0.99999999999999989
10
-209.2999999999555
20
156.00000081600851
10
-209.29999999995636
20
146.00000081628292
42
-1.0000004800858366
0
CIRCLE
5
107
100
AcDbEntity
8
0
100
AcDbCircle
10
-195.62703394758285
20
176
30
0
40
1.6999999999999993
210
-6.2230152778611417e-61
220
7.620995741077724e-77
230
1
0
CIRCLE
5
108
100
AcDbEntity
8
0
100
AcDbCircle
10
-218.99999999995549
20
176
30
0
40
1.7000000000000015
210
3.4321913579709782e-61
220
2.8025969286496341e-45
230
1
0
CIRCLE
5
109
100
AcDbEntity
8
0
100
AcDbCircle
10
-207.3782217350448
20
206.708
30
0
40
20.000000000000007
210
0
220
-0
230
1
0
LWPOLYLINE
5
110
100
AcDbEntity
8
0
100
AcDbPolyline
90
20
70
1
43
0.0
10
-183.62703394758282
20
224.58578643762692
42
0.18055080969567219
10
-183.9960951176366
20
225.35870958235654
10
-189.53316334095732
20
230.70710678118658
42
0.16493286096451951
10
-190.39692598732222
20
231
10
-224.99999999995549
20
231
42
0.41421356237309503
10
-230.99999999995549
20
225
10
-230.99999999995549
20
170.39692598736679
42
0.22422062761683934
10
-230.70710678114199
20
169.53316334100185
10
-225.358709582312
20
163.99609511768108
42
-0.19441212977372999
10
-224.99999999995549
20
163.10841447746429
10
-224.99999999995552
20
-163.69420088888126
42
-0.19441212977376385
10
-225.35870958231203
20
-164.58188152909804
10
-230.7071067811421
20
-170.11894975241881
42
0.22422062761683792
10
-230.99999999995558
20
-170.98271239878372
10
-230.99999999995558
20
-225.58578641141693
42
0.41421356237308815
10
-224.99999999995555
20
-231.58578641141696
10
-190.39692598732231
20
-231.58578641141696
42
0.16493286096446594
10
-189.5331633409574
20
-231.29289319260349
10
-183.99609511763668
20
-225.9444959937735
42
0.18055080969563231
10
-183.62703394758287
20
-225.17157284904386
0
ENDSEC
0
SECTION
2
OBJECTS
0
DICTIONARY
5
C
100
AcDbDictionary
3
ACAD_GROUP
350
D
3
ACAD_MLINESTYLE
350
17
0
DICTIONARY
5
D
100
AcDbDictionary
0
DICTIONARY
5
1A
330
C
100
AcDbDictionary
0
DICTIONARY
5
17
100
AcDbDictionary
0
ENDSEC
0
EOF
